<mxfile host="65bd71144e">
    <diagram id="cC4ex59na0cjLFaejzmK" name="Página-1">
        <mxGraphModel dx="1742" dy="536" grid="1" gridSize="10" guides="1" tooltips="1" connect="1" arrows="1" fold="1" page="1" pageScale="1" pageWidth="827" pageHeight="1169" math="0" shadow="0">
            <root>
                <mxCell id="0"/>
                <mxCell id="1" parent="0"/>
                <mxCell id="4" value="" style="edgeStyle=none;html=1;" edge="1" parent="1" source="2" target="3">
                    <mxGeometry relative="1" as="geometry"/>
                </mxCell>
                <mxCell id="2" value="INICIO" style="ellipse;whiteSpace=wrap;html=1;fillColor=#6a00ff;fontColor=#ffffff;strokeColor=#3700CC;" vertex="1" parent="1">
                    <mxGeometry x="330" y="10" width="120" height="80" as="geometry"/>
                </mxCell>
                <mxCell id="6" value="" style="edgeStyle=none;html=1;" edge="1" parent="1" source="3" target="5">
                    <mxGeometry relative="1" as="geometry"/>
                </mxCell>
                <mxCell id="3" value="a,b,c" style="shape=parallelogram;perimeter=parallelogramPerimeter;whiteSpace=wrap;html=1;fixedSize=1;fillColor=#a20025;fontColor=#ffffff;strokeColor=#6F0000;" vertex="1" parent="1">
                    <mxGeometry x="330" y="140" width="120" height="60" as="geometry"/>
                </mxCell>
                <mxCell id="33" value="" style="edgeStyle=none;html=1;" edge="1" parent="1" source="5" target="9">
                    <mxGeometry relative="1" as="geometry"/>
                </mxCell>
                <mxCell id="5" value="&lt;div style=&quot;text-align: left;&quot;&gt;&lt;font face=&quot;arial, sans-serif&quot; color=&quot;#202124&quot;&gt;&lt;span style=&quot;font-size: 16px; background-color: rgb(255, 255, 255);&quot;&gt;&lt;b&gt;&amp;nbsp;&amp;nbsp;&lt;/b&gt;&lt;/span&gt;&lt;/font&gt;&lt;/div&gt;&lt;span style=&quot;color: rgb(32, 33, 36); font-family: arial, sans-serif; font-size: 16px; text-align: left; background-color: rgb(255, 255, 255);&quot;&gt;d=b²-4ac&lt;/span&gt;" style="rounded=0;whiteSpace=wrap;html=1;fillColor=#60a917;fontColor=#ffffff;strokeColor=#2D7600;" vertex="1" parent="1">
                    <mxGeometry x="325" y="290" width="130" height="60" as="geometry"/>
                </mxCell>
                <mxCell id="9" value="d==0" style="rhombus;whiteSpace=wrap;html=1;fillColor=#a20025;fontColor=#ffffff;strokeColor=#6F0000;" vertex="1" parent="1">
                    <mxGeometry x="350" y="460" width="80" height="80" as="geometry"/>
                </mxCell>
                <mxCell id="11" value="" style="endArrow=none;html=1;" edge="1" parent="1">
                    <mxGeometry width="50" height="50" relative="1" as="geometry">
                        <mxPoint x="430" y="499.5" as="sourcePoint"/>
                        <mxPoint x="610" y="499.5" as="targetPoint"/>
                    </mxGeometry>
                </mxCell>
                <mxCell id="12" value="" style="endArrow=none;html=1;" edge="1" parent="1">
                    <mxGeometry width="50" height="50" relative="1" as="geometry">
                        <mxPoint x="610" y="630" as="sourcePoint"/>
                        <mxPoint x="610" y="500" as="targetPoint"/>
                    </mxGeometry>
                </mxCell>
                <mxCell id="37" value="" style="edgeStyle=none;html=1;" edge="1" parent="1" source="13" target="36">
                    <mxGeometry relative="1" as="geometry"/>
                </mxCell>
                <mxCell id="13" value="x1=b/2&lt;br&gt;x2=x1" style="whiteSpace=wrap;html=1;aspect=fixed;fillColor=#1ba1e2;fontColor=#ffffff;strokeColor=#006EAF;" vertex="1" parent="1">
                    <mxGeometry x="580" y="630" width="80" height="80" as="geometry"/>
                </mxCell>
                <mxCell id="14" value="" style="endArrow=none;html=1;" edge="1" parent="1">
                    <mxGeometry width="50" height="50" relative="1" as="geometry">
                        <mxPoint x="160" y="499.5" as="sourcePoint"/>
                        <mxPoint x="350" y="499.5" as="targetPoint"/>
                    </mxGeometry>
                </mxCell>
                <mxCell id="15" value="" style="endArrow=none;html=1;" edge="1" parent="1">
                    <mxGeometry width="50" height="50" relative="1" as="geometry">
                        <mxPoint x="160" y="675" as="sourcePoint"/>
                        <mxPoint x="160" y="495" as="targetPoint"/>
                    </mxGeometry>
                </mxCell>
                <mxCell id="16" value="d&amp;gt;0" style="rhombus;whiteSpace=wrap;html=1;fillColor=#6a00ff;fontColor=#ffffff;strokeColor=#3700CC;" vertex="1" parent="1">
                    <mxGeometry x="120" y="670" width="80" height="80" as="geometry"/>
                </mxCell>
                <mxCell id="17" value="" style="endArrow=none;html=1;" edge="1" parent="1">
                    <mxGeometry width="50" height="50" relative="1" as="geometry">
                        <mxPoint x="200" y="710" as="sourcePoint"/>
                        <mxPoint x="340" y="710" as="targetPoint"/>
                    </mxGeometry>
                </mxCell>
                <mxCell id="18" value="" style="endArrow=none;html=1;" edge="1" parent="1">
                    <mxGeometry width="50" height="50" relative="1" as="geometry">
                        <mxPoint x="340" y="830" as="sourcePoint"/>
                        <mxPoint x="340" y="710" as="targetPoint"/>
                    </mxGeometry>
                </mxCell>
                <mxCell id="19" value="" style="endArrow=none;html=1;" edge="1" parent="1">
                    <mxGeometry width="50" height="50" relative="1" as="geometry">
                        <mxPoint x="-20" y="710" as="sourcePoint"/>
                        <mxPoint x="120" y="710" as="targetPoint"/>
                    </mxGeometry>
                </mxCell>
                <mxCell id="20" value="" style="endArrow=none;html=1;" edge="1" parent="1">
                    <mxGeometry width="50" height="50" relative="1" as="geometry">
                        <mxPoint x="-20" y="830" as="sourcePoint"/>
                        <mxPoint x="-20" y="710" as="targetPoint"/>
                    </mxGeometry>
                </mxCell>
                <mxCell id="35" value="" style="edgeStyle=none;html=1;" edge="1" parent="1" source="21" target="28">
                    <mxGeometry relative="1" as="geometry"/>
                </mxCell>
                <mxCell id="21" value="x1=&lt;span style=&quot;color: rgb(32, 33, 36); font-family: arial, sans-serif; font-size: 16px; text-align: left; background-color: rgb(255, 255, 255);&quot;&gt;-b+√b/2a&lt;br&gt;x2=-&lt;/span&gt;&lt;span style=&quot;color: rgb(32, 33, 36); font-family: arial, sans-serif; font-size: 16px; text-align: left; background-color: rgb(255, 255, 255);&quot;&gt;b-√b/2a&lt;/span&gt;&lt;span style=&quot;color: rgb(32, 33, 36); font-family: arial, sans-serif; font-size: 16px; text-align: left; background-color: rgb(255, 255, 255);&quot;&gt;&lt;br&gt;&lt;/span&gt;" style="whiteSpace=wrap;html=1;aspect=fixed;fillColor=#76608a;fontColor=#ffffff;strokeColor=#432D57;" vertex="1" parent="1">
                    <mxGeometry x="310" y="830" width="150" height="150" as="geometry"/>
                </mxCell>
                <mxCell id="22" value="msj= las raices son imaginarias" style="whiteSpace=wrap;html=1;aspect=fixed;fillColor=#a0522d;fontColor=#ffffff;strokeColor=#6D1F00;" vertex="1" parent="1">
                    <mxGeometry x="-70" y="830" width="90" height="90" as="geometry"/>
                </mxCell>
                <mxCell id="28" value="X1,X2" style="shape=document;whiteSpace=wrap;html=1;boundedLbl=1;fillColor=#6d8764;fontColor=#ffffff;strokeColor=#3A5431;" vertex="1" parent="1">
                    <mxGeometry x="325" y="1020" width="120" height="80" as="geometry"/>
                </mxCell>
                <mxCell id="29" value="FIN" style="ellipse;whiteSpace=wrap;html=1;fillColor=#e3c800;fontColor=#000000;strokeColor=#B09500;" vertex="1" parent="1">
                    <mxGeometry x="140" y="1510" width="120" height="80" as="geometry"/>
                </mxCell>
                <mxCell id="36" value="x1,x2" style="shape=document;whiteSpace=wrap;html=1;boundedLbl=1;fillColor=#fa6800;fontColor=#000000;strokeColor=#C73500;" vertex="1" parent="1">
                    <mxGeometry x="560" y="770" width="120" height="80" as="geometry"/>
                </mxCell>
                <mxCell id="38" value="" style="endArrow=none;html=1;" edge="1" parent="1">
                    <mxGeometry width="50" height="50" relative="1" as="geometry">
                        <mxPoint x="-20" y="1170" as="sourcePoint"/>
                        <mxPoint x="-20" y="920" as="targetPoint"/>
                    </mxGeometry>
                </mxCell>
                <mxCell id="39" value="" style="endArrow=none;html=1;" edge="1" parent="1">
                    <mxGeometry width="50" height="50" relative="1" as="geometry">
                        <mxPoint x="390" y="1170" as="sourcePoint"/>
                        <mxPoint x="389.5" y="1090" as="targetPoint"/>
                    </mxGeometry>
                </mxCell>
                <mxCell id="40" value="" style="endArrow=none;html=1;" edge="1" parent="1">
                    <mxGeometry width="50" height="50" relative="1" as="geometry">
                        <mxPoint x="-15" y="1169" as="sourcePoint"/>
                        <mxPoint x="395" y="1169" as="targetPoint"/>
                    </mxGeometry>
                </mxCell>
                <mxCell id="43" value="" style="edgeStyle=none;html=1;" edge="1" parent="1" source="41" target="29">
                    <mxGeometry relative="1" as="geometry"/>
                </mxCell>
                <mxCell id="41" value="x1,x2" style="shape=document;whiteSpace=wrap;html=1;boundedLbl=1;fillColor=#e51400;fontColor=#ffffff;strokeColor=#B20000;" vertex="1" parent="1">
                    <mxGeometry x="140" y="1250" width="120" height="80" as="geometry"/>
                </mxCell>
                <mxCell id="42" value="" style="endArrow=none;html=1;" edge="1" parent="1">
                    <mxGeometry width="50" height="50" relative="1" as="geometry">
                        <mxPoint x="199.5" y="1250" as="sourcePoint"/>
                        <mxPoint x="200" y="1160" as="targetPoint"/>
                    </mxGeometry>
                </mxCell>
                <mxCell id="44" value="" style="endArrow=none;html=1;" edge="1" parent="1">
                    <mxGeometry width="50" height="50" relative="1" as="geometry">
                        <mxPoint x="620" y="1440" as="sourcePoint"/>
                        <mxPoint x="619.5" y="840" as="targetPoint"/>
                    </mxGeometry>
                </mxCell>
                <mxCell id="45" value="" style="endArrow=none;html=1;" edge="1" parent="1">
                    <mxGeometry width="50" height="50" relative="1" as="geometry">
                        <mxPoint x="200" y="1440" as="sourcePoint"/>
                        <mxPoint x="620" y="1440" as="targetPoint"/>
                    </mxGeometry>
                </mxCell>
            </root>
        </mxGraphModel>
    </diagram>
</mxfile>